# xmcd
#
# Track frame offsets:
#	150
#	11327
#	28112
#	44825
#	60632
#	79175
#	86542
#	102422
#	120927
#	139662
#	156525
#	172250
#	190677
#	201330
#	216282
#	232435
#
# Disc length: 3322 seconds
#
# Revision: 0
# Processed by: cddbd v1.4PL0 Copyright (c) Steve Scherf et al.
# Submitted via: audiograbber 1.80
#
DISCID=ea0cf810
DTITLE=Enrico Caruso - Complete Recordings Vol.3
DYEAR=1900
DGENRE=
TTITLE0=Brindisi
TTITLE1=Serenata
TTITLE2=Il fior che avevi a me tu dato
TTITLE3=Cielo! e mar!
TTITLE4=Bianca al par di neve alpina
TTITLE5=Di quella pira
TTITLE6=M'appari tutt'amor
TTITLE7=Che gelida manina
TTITLE8=Salut! demeure chaste et pure
TTITLE9=Spirto gentil, ne 'sognio miei
TTITLE10=Celeste Aida
TTITLE11=Solenne in quest'ora
TTITLE12=Triste Ritorno
TTITLE13=Ideale
TTITLE14=O Paradiso
TTITLE15=Bella figlia dell'amore
EXTD=
EXTT0=
EXTT1=
EXTT2=
EXTT3=
EXTT4=
EXTT5=
EXTT6=
EXTT7=
EXTT8=
EXTT9=
EXTT10=
EXTT11=
EXTT12=
EXTT13=
EXTT14=
EXTT15=
PLAYORDER=
